<mxfile host="app.diagrams.net" modified="2022-07-11T05:55:47.805Z" agent="5.0 (Macintosh; Intel Mac OS X 10_15_7) AppleWebKit/537.36 (KHTML, like Gecko) Chrome/103.0.0.0 Safari/537.36" etag="bLChDxwadIdVtHFpKwS-" version="20.0.4" type="github" pages="3">
  <diagram id="5DRYz6tXYQytCvr_Fafk" name="jp全球化架構圖">
    <mxGraphModel dx="1426" dy="697" grid="1" gridSize="10" guides="1" tooltips="1" connect="1" arrows="1" fold="1" page="1" pageScale="1" pageWidth="827" pageHeight="1169" math="0" shadow="0">
      <root>
        <mxCell id="0" />
        <mxCell id="1" parent="0" />
        <mxCell id="D9mH8IFT0bEouNxFaDhG-1" value="" style="rounded=0;whiteSpace=wrap;html=1;fontSize=18;fillColor=#FFFFFF;" vertex="1" parent="1">
          <mxGeometry x="100" y="330" width="200" height="640" as="geometry" />
        </mxCell>
        <mxCell id="D9mH8IFT0bEouNxFaDhG-2" value="" style="rounded=0;whiteSpace=wrap;html=1;fontSize=18;fillColor=#FFFFFF;" vertex="1" parent="1">
          <mxGeometry x="320" y="330" width="180" height="640" as="geometry" />
        </mxCell>
        <mxCell id="D9mH8IFT0bEouNxFaDhG-3" value="&lt;font style=&quot;font-size: 12px;&quot;&gt;nginx&lt;/font&gt;" style="rounded=0;whiteSpace=wrap;html=1;fontSize=18;fillColor=#CCFFCC;" vertex="1" parent="1">
          <mxGeometry x="100" y="280" width="200" height="30" as="geometry" />
        </mxCell>
        <mxCell id="D9mH8IFT0bEouNxFaDhG-4" value="&lt;font style=&quot;font-size: 12px;&quot;&gt;nginx&lt;/font&gt;" style="rounded=0;whiteSpace=wrap;html=1;fontSize=18;fillColor=#CCFFCC;" vertex="1" parent="1">
          <mxGeometry x="320" y="280" width="180" height="30" as="geometry" />
        </mxCell>
        <mxCell id="D9mH8IFT0bEouNxFaDhG-5" value="&lt;font style=&quot;font-size: 12px;&quot;&gt;nginx&lt;/font&gt;" style="rounded=0;whiteSpace=wrap;html=1;fontSize=18;fillColor=#CCFFCC;" vertex="1" parent="1">
          <mxGeometry x="520" y="280" width="175" height="30" as="geometry" />
        </mxCell>
        <mxCell id="D9mH8IFT0bEouNxFaDhG-6" value="&lt;font style=&quot;font-size: 12px;&quot;&gt;nginx&lt;/font&gt;" style="rounded=0;whiteSpace=wrap;html=1;fontSize=18;fillColor=#CCFFCC;" vertex="1" parent="1">
          <mxGeometry x="714.5" y="280" width="185.5" height="30" as="geometry" />
        </mxCell>
        <mxCell id="D9mH8IFT0bEouNxFaDhG-7" style="edgeStyle=none;shape=link;rounded=0;orthogonalLoop=1;jettySize=auto;html=1;exitX=1;exitY=0.5;exitDx=0;exitDy=0;exitPerimeter=0;entryX=0;entryY=0.5;entryDx=0;entryDy=0;entryPerimeter=0;fillColor=#D4FCFF;" edge="1" parent="1" source="D9mH8IFT0bEouNxFaDhG-8" target="D9mH8IFT0bEouNxFaDhG-9">
          <mxGeometry relative="1" as="geometry" />
        </mxCell>
        <mxCell id="D9mH8IFT0bEouNxFaDhG-8" value="&lt;font style=&quot;font-size: 12px;&quot;&gt;Admin master&lt;br&gt;&lt;/font&gt;" style="strokeWidth=2;html=1;shape=mxgraph.flowchart.database;whiteSpace=wrap;fontSize=18;fillColor=#F8CECC;" vertex="1" parent="1">
          <mxGeometry x="140" y="626" width="120" height="70" as="geometry" />
        </mxCell>
        <mxCell id="D9mH8IFT0bEouNxFaDhG-9" value="&lt;font style=&quot;font-size: 12px;&quot;&gt;Admin&amp;nbsp;slave&lt;br&gt;&lt;/font&gt;" style="strokeWidth=2;html=1;shape=mxgraph.flowchart.database;whiteSpace=wrap;fontSize=18;fillColor=#F8CECC;" vertex="1" parent="1">
          <mxGeometry x="340" y="626" width="120" height="70" as="geometry" />
        </mxCell>
        <mxCell id="D9mH8IFT0bEouNxFaDhG-10" style="edgeStyle=none;shape=link;rounded=0;orthogonalLoop=1;jettySize=auto;html=1;exitX=0;exitY=0.5;exitDx=0;exitDy=0;exitPerimeter=0;fillColor=#D4FCFF;" edge="1" parent="1" source="D9mH8IFT0bEouNxFaDhG-11" target="D9mH8IFT0bEouNxFaDhG-31">
          <mxGeometry relative="1" as="geometry" />
        </mxCell>
        <mxCell id="D9mH8IFT0bEouNxFaDhG-11" value="&lt;font style=&quot;font-size: 12px;&quot;&gt;VN master&lt;br&gt;&lt;/font&gt;" style="strokeWidth=2;html=1;shape=mxgraph.flowchart.database;whiteSpace=wrap;fontSize=18;fillColor=#CCFFCC;" vertex="1" parent="1">
          <mxGeometry x="340" y="716" width="120" height="70" as="geometry" />
        </mxCell>
        <mxCell id="D9mH8IFT0bEouNxFaDhG-12" value="&lt;font style=&quot;font-size: 10px;&quot;&gt;config server&lt;/font&gt;" style="rounded=0;whiteSpace=wrap;html=1;fontSize=18;fillColor=#99FFFF;" vertex="1" parent="1">
          <mxGeometry x="430" y="415.75" width="60" height="48.5" as="geometry" />
        </mxCell>
        <mxCell id="D9mH8IFT0bEouNxFaDhG-13" value="&lt;font style=&quot;font-size: 10px;&quot;&gt;redis&lt;/font&gt;" style="rounded=0;whiteSpace=wrap;html=1;fontSize=18;fillColor=#99FFFF;" vertex="1" parent="1">
          <mxGeometry x="430" y="480" width="60" height="48.5" as="geometry" />
        </mxCell>
        <mxCell id="D9mH8IFT0bEouNxFaDhG-14" value="&lt;span style=&quot;font-size: 14px;&quot;&gt;亞太&lt;/span&gt;" style="text;html=1;resizable=0;autosize=1;align=center;verticalAlign=middle;points=[];fillColor=none;strokeColor=none;rounded=0;fontSize=18;" vertex="1" parent="1">
          <mxGeometry x="180" y="250" width="40" height="30" as="geometry" />
        </mxCell>
        <mxCell id="D9mH8IFT0bEouNxFaDhG-15" value="&lt;span style=&quot;font-size: 14px;&quot;&gt;VN&lt;br&gt;&lt;/span&gt;" style="text;html=1;resizable=0;autosize=1;align=center;verticalAlign=middle;points=[];fillColor=none;strokeColor=none;rounded=0;fontSize=18;" vertex="1" parent="1">
          <mxGeometry x="399" y="250" width="30" height="30" as="geometry" />
        </mxCell>
        <mxCell id="D9mH8IFT0bEouNxFaDhG-16" value="" style="edgeStyle=orthogonalEdgeStyle;rounded=0;orthogonalLoop=1;jettySize=auto;html=1;" edge="1" parent="1" source="D9mH8IFT0bEouNxFaDhG-17" target="D9mH8IFT0bEouNxFaDhG-14">
          <mxGeometry relative="1" as="geometry" />
        </mxCell>
        <mxCell id="D9mH8IFT0bEouNxFaDhG-17" value="" style="shape=umlActor;verticalLabelPosition=bottom;verticalAlign=top;html=1;outlineConnect=0;" vertex="1" parent="1">
          <mxGeometry x="165" y="110" width="70" height="80" as="geometry" />
        </mxCell>
        <mxCell id="D9mH8IFT0bEouNxFaDhG-18" value="" style="edgeStyle=orthogonalEdgeStyle;rounded=0;orthogonalLoop=1;jettySize=auto;html=1;" edge="1" parent="1" source="D9mH8IFT0bEouNxFaDhG-20" target="D9mH8IFT0bEouNxFaDhG-15">
          <mxGeometry relative="1" as="geometry" />
        </mxCell>
        <mxCell id="D9mH8IFT0bEouNxFaDhG-19" value="設定通道..." style="edgeLabel;html=1;align=center;verticalAlign=middle;resizable=0;points=[];" vertex="1" connectable="0" parent="D9mH8IFT0bEouNxFaDhG-18">
          <mxGeometry x="-0.2" relative="1" as="geometry">
            <mxPoint as="offset" />
          </mxGeometry>
        </mxCell>
        <mxCell id="D9mH8IFT0bEouNxFaDhG-20" value="" style="shape=umlActor;verticalLabelPosition=bottom;verticalAlign=top;html=1;outlineConnect=0;" vertex="1" parent="1">
          <mxGeometry x="379" y="110" width="70" height="80" as="geometry" />
        </mxCell>
        <mxCell id="D9mH8IFT0bEouNxFaDhG-21" value="&lt;font style=&quot;font-size: 14px;&quot;&gt;管理後台&lt;/font&gt;" style="text;html=1;resizable=0;autosize=1;align=center;verticalAlign=middle;points=[];fillColor=none;strokeColor=none;rounded=0;fontSize=18;" vertex="1" parent="1">
          <mxGeometry x="165" y="70" width="70" height="30" as="geometry" />
        </mxCell>
        <mxCell id="D9mH8IFT0bEouNxFaDhG-22" value="&lt;font style=&quot;font-size: 14px;&quot;&gt;收付子平台(VN)&lt;/font&gt;" style="text;html=1;resizable=0;autosize=1;align=center;verticalAlign=middle;points=[];fillColor=none;strokeColor=none;rounded=0;fontSize=18;" vertex="1" parent="1">
          <mxGeometry x="354" y="65" width="120" height="40" as="geometry" />
        </mxCell>
        <mxCell id="D9mH8IFT0bEouNxFaDhG-23" value="" style="edgeStyle=orthogonalEdgeStyle;rounded=0;orthogonalLoop=1;jettySize=auto;html=1;" edge="1" parent="1">
          <mxGeometry relative="1" as="geometry">
            <mxPoint x="379" y="190" as="sourcePoint" />
            <mxPoint x="280" y="270" as="targetPoint" />
            <Array as="points">
              <mxPoint x="280" y="190" />
            </Array>
          </mxGeometry>
        </mxCell>
        <mxCell id="D9mH8IFT0bEouNxFaDhG-24" value="Login&lt;br&gt;get method api" style="edgeLabel;html=1;align=center;verticalAlign=middle;resizable=0;points=[];" vertex="1" connectable="0" parent="D9mH8IFT0bEouNxFaDhG-23">
          <mxGeometry x="-0.4916" y="-1" relative="1" as="geometry">
            <mxPoint x="1" as="offset" />
          </mxGeometry>
        </mxCell>
        <mxCell id="D9mH8IFT0bEouNxFaDhG-25" value="&lt;span style=&quot;font-size: 14px;&quot;&gt;ID&lt;br&gt;&lt;/span&gt;" style="text;html=1;resizable=0;autosize=1;align=center;verticalAlign=middle;points=[];fillColor=none;strokeColor=none;rounded=0;fontSize=18;" vertex="1" parent="1">
          <mxGeometry x="593" y="250" width="30" height="30" as="geometry" />
        </mxCell>
        <mxCell id="D9mH8IFT0bEouNxFaDhG-26" value="&lt;span style=&quot;font-size: 14px;&quot;&gt;BR&lt;br&gt;&lt;/span&gt;" style="text;html=1;resizable=0;autosize=1;align=center;verticalAlign=middle;points=[];fillColor=none;strokeColor=none;rounded=0;fontSize=18;" vertex="1" parent="1">
          <mxGeometry x="787.5" y="250" width="30" height="30" as="geometry" />
        </mxCell>
        <mxCell id="D9mH8IFT0bEouNxFaDhG-27" value="&lt;span style=&quot;font-size: 12px;&quot;&gt;server admin&lt;/span&gt;" style="rounded=0;whiteSpace=wrap;html=1;fontSize=18;fillColor=#FFE599;" vertex="1" parent="1">
          <mxGeometry x="120" y="350" width="85" height="46.25" as="geometry" />
        </mxCell>
        <mxCell id="D9mH8IFT0bEouNxFaDhG-28" value="&lt;span style=&quot;font-size: 12px;&quot;&gt;server admin&lt;/span&gt;&lt;span style=&quot;font-size: 12px;&quot;&gt;&lt;br&gt;&lt;/span&gt;" style="rounded=0;whiteSpace=wrap;html=1;fontSize=18;fillColor=#FFE599;" vertex="1" parent="1">
          <mxGeometry x="329" y="350" width="85" height="46.25" as="geometry" />
        </mxCell>
        <mxCell id="D9mH8IFT0bEouNxFaDhG-29" value="&lt;span style=&quot;font-size: 12px;&quot;&gt;server mch&lt;/span&gt;" style="rounded=0;whiteSpace=wrap;html=1;fontSize=18;fillColor=#FFE599;" vertex="1" parent="1">
          <mxGeometry x="329" y="410" width="85" height="46.25" as="geometry" />
        </mxCell>
        <mxCell id="D9mH8IFT0bEouNxFaDhG-30" value="&lt;span style=&quot;font-size: 12px;&quot;&gt;server api&lt;/span&gt;" style="rounded=0;whiteSpace=wrap;html=1;fontSize=18;fillColor=#FFE599;" vertex="1" parent="1">
          <mxGeometry x="329" y="468.5" width="85" height="46.25" as="geometry" />
        </mxCell>
        <mxCell id="D9mH8IFT0bEouNxFaDhG-31" value="&lt;font style=&quot;font-size: 12px;&quot;&gt;VN+ID+BR slave&lt;br&gt;&lt;/font&gt;" style="strokeWidth=2;html=1;shape=mxgraph.flowchart.database;whiteSpace=wrap;fontSize=18;fillColor=#CCFFCC;" vertex="1" parent="1">
          <mxGeometry x="140" y="810" width="120" height="70" as="geometry" />
        </mxCell>
        <mxCell id="D9mH8IFT0bEouNxFaDhG-32" value="&lt;font style=&quot;font-size: 10px;&quot;&gt;config server&lt;/font&gt;" style="rounded=0;whiteSpace=wrap;html=1;fontSize=18;fillColor=#99FFFF;" vertex="1" parent="1">
          <mxGeometry x="230" y="415.75" width="60" height="48.5" as="geometry" />
        </mxCell>
        <mxCell id="D9mH8IFT0bEouNxFaDhG-33" style="edgeStyle=none;rounded=0;orthogonalLoop=1;jettySize=auto;html=1;exitX=1;exitY=0.5;exitDx=0;exitDy=0;entryX=0;entryY=0.5;entryDx=0;entryDy=0;shape=link;" edge="1" parent="1" source="D9mH8IFT0bEouNxFaDhG-34" target="D9mH8IFT0bEouNxFaDhG-35">
          <mxGeometry relative="1" as="geometry" />
        </mxCell>
        <mxCell id="D9mH8IFT0bEouNxFaDhG-34" value="&lt;font style=&quot;font-size: 10px;&quot;&gt;safedog&lt;br&gt;(master)&lt;br&gt;&lt;/font&gt;" style="rounded=0;whiteSpace=wrap;html=1;fontSize=18;fillColor=#99FFFF;" vertex="1" parent="1">
          <mxGeometry x="230" y="540.75" width="60" height="48.5" as="geometry" />
        </mxCell>
        <mxCell id="D9mH8IFT0bEouNxFaDhG-35" value="&lt;font style=&quot;font-size: 10px;&quot;&gt;safedog&lt;br&gt;(slave)&lt;br&gt;&lt;/font&gt;" style="rounded=0;whiteSpace=wrap;html=1;fontSize=18;fillColor=#99FFFF;" vertex="1" parent="1">
          <mxGeometry x="430" y="540.75" width="60" height="48.5" as="geometry" />
        </mxCell>
        <mxCell id="D9mH8IFT0bEouNxFaDhG-36" value="" style="rounded=0;whiteSpace=wrap;html=1;fontSize=18;fillColor=#FFFFFF;" vertex="1" parent="1">
          <mxGeometry x="520" y="330" width="180" height="640" as="geometry" />
        </mxCell>
        <mxCell id="D9mH8IFT0bEouNxFaDhG-37" value="&lt;font style=&quot;font-size: 12px;&quot;&gt;Admin&amp;nbsp;slave&lt;br&gt;&lt;/font&gt;" style="strokeWidth=2;html=1;shape=mxgraph.flowchart.database;whiteSpace=wrap;fontSize=18;fillColor=#F8CECC;" vertex="1" parent="1">
          <mxGeometry x="540" y="626" width="120" height="70" as="geometry" />
        </mxCell>
        <mxCell id="D9mH8IFT0bEouNxFaDhG-38" style="edgeStyle=none;shape=link;rounded=0;orthogonalLoop=1;jettySize=auto;html=1;exitX=0;exitY=0.5;exitDx=0;exitDy=0;exitPerimeter=0;entryX=1;entryY=0.5;entryDx=0;entryDy=0;entryPerimeter=0;fillColor=#D4FCFF;" edge="1" parent="1" source="D9mH8IFT0bEouNxFaDhG-39" target="D9mH8IFT0bEouNxFaDhG-31">
          <mxGeometry relative="1" as="geometry" />
        </mxCell>
        <mxCell id="D9mH8IFT0bEouNxFaDhG-39" value="&lt;font style=&quot;font-size: 12px;&quot;&gt;ID master&lt;br&gt;&lt;/font&gt;" style="strokeWidth=2;html=1;shape=mxgraph.flowchart.database;whiteSpace=wrap;fontSize=18;fillColor=#CCFFCC;" vertex="1" parent="1">
          <mxGeometry x="540" y="800" width="120" height="70" as="geometry" />
        </mxCell>
        <mxCell id="D9mH8IFT0bEouNxFaDhG-40" value="&lt;font style=&quot;font-size: 10px;&quot;&gt;config server&lt;/font&gt;" style="rounded=0;whiteSpace=wrap;html=1;fontSize=18;fillColor=#99FFFF;" vertex="1" parent="1">
          <mxGeometry x="630" y="415.75" width="60" height="48.5" as="geometry" />
        </mxCell>
        <mxCell id="D9mH8IFT0bEouNxFaDhG-41" value="&lt;font style=&quot;font-size: 10px;&quot;&gt;redis&lt;/font&gt;" style="rounded=0;whiteSpace=wrap;html=1;fontSize=18;fillColor=#99FFFF;" vertex="1" parent="1">
          <mxGeometry x="630" y="480" width="60" height="48.5" as="geometry" />
        </mxCell>
        <mxCell id="D9mH8IFT0bEouNxFaDhG-42" value="&lt;span style=&quot;font-size: 12px;&quot;&gt;server admin&lt;/span&gt;&lt;span style=&quot;font-size: 12px;&quot;&gt;&lt;br&gt;&lt;/span&gt;" style="rounded=0;whiteSpace=wrap;html=1;fontSize=18;fillColor=#FFE599;" vertex="1" parent="1">
          <mxGeometry x="529" y="350" width="85" height="46.25" as="geometry" />
        </mxCell>
        <mxCell id="D9mH8IFT0bEouNxFaDhG-43" value="&lt;span style=&quot;font-size: 12px;&quot;&gt;server mch&lt;/span&gt;" style="rounded=0;whiteSpace=wrap;html=1;fontSize=18;fillColor=#FFE599;" vertex="1" parent="1">
          <mxGeometry x="529" y="410" width="85" height="46.25" as="geometry" />
        </mxCell>
        <mxCell id="D9mH8IFT0bEouNxFaDhG-44" value="&lt;span style=&quot;font-size: 12px;&quot;&gt;server api&lt;/span&gt;" style="rounded=0;whiteSpace=wrap;html=1;fontSize=18;fillColor=#FFE599;" vertex="1" parent="1">
          <mxGeometry x="529" y="468.5" width="85" height="46.25" as="geometry" />
        </mxCell>
        <mxCell id="D9mH8IFT0bEouNxFaDhG-45" value="&lt;font style=&quot;font-size: 10px;&quot;&gt;safedog&lt;br&gt;(slave)&lt;br&gt;&lt;/font&gt;" style="rounded=0;whiteSpace=wrap;html=1;fontSize=18;fillColor=#99FFFF;" vertex="1" parent="1">
          <mxGeometry x="630" y="540.75" width="60" height="48.5" as="geometry" />
        </mxCell>
        <mxCell id="D9mH8IFT0bEouNxFaDhG-46" value="" style="rounded=0;whiteSpace=wrap;html=1;fontSize=18;fillColor=#FFFFFF;" vertex="1" parent="1">
          <mxGeometry x="720" y="330" width="180" height="640" as="geometry" />
        </mxCell>
        <mxCell id="D9mH8IFT0bEouNxFaDhG-47" value="&lt;font style=&quot;font-size: 12px;&quot;&gt;Admin&amp;nbsp;slave&lt;br&gt;&lt;/font&gt;" style="strokeWidth=2;html=1;shape=mxgraph.flowchart.database;whiteSpace=wrap;fontSize=18;fillColor=#F8CECC;" vertex="1" parent="1">
          <mxGeometry x="740" y="626" width="120" height="70" as="geometry" />
        </mxCell>
        <mxCell id="D9mH8IFT0bEouNxFaDhG-48" style="edgeStyle=none;shape=link;rounded=0;orthogonalLoop=1;jettySize=auto;html=1;exitX=0;exitY=0.5;exitDx=0;exitDy=0;exitPerimeter=0;entryX=1;entryY=0.85;entryDx=0;entryDy=0;entryPerimeter=0;fillColor=#D4FCFF;" edge="1" parent="1" source="D9mH8IFT0bEouNxFaDhG-49" target="D9mH8IFT0bEouNxFaDhG-31">
          <mxGeometry relative="1" as="geometry" />
        </mxCell>
        <mxCell id="D9mH8IFT0bEouNxFaDhG-49" value="&lt;font style=&quot;font-size: 12px;&quot;&gt;BR master&lt;br&gt;&lt;/font&gt;" style="strokeWidth=2;html=1;shape=mxgraph.flowchart.database;whiteSpace=wrap;fontSize=18;fillColor=#CCFFCC;" vertex="1" parent="1">
          <mxGeometry x="747.25" y="880" width="120" height="70" as="geometry" />
        </mxCell>
        <mxCell id="D9mH8IFT0bEouNxFaDhG-50" value="&lt;font style=&quot;font-size: 10px;&quot;&gt;config server&lt;/font&gt;" style="rounded=0;whiteSpace=wrap;html=1;fontSize=18;fillColor=#99FFFF;" vertex="1" parent="1">
          <mxGeometry x="830" y="415.75" width="60" height="48.5" as="geometry" />
        </mxCell>
        <mxCell id="D9mH8IFT0bEouNxFaDhG-51" value="&lt;font style=&quot;font-size: 10px;&quot;&gt;redis&lt;/font&gt;" style="rounded=0;whiteSpace=wrap;html=1;fontSize=18;fillColor=#99FFFF;" vertex="1" parent="1">
          <mxGeometry x="830" y="480" width="60" height="48.5" as="geometry" />
        </mxCell>
        <mxCell id="D9mH8IFT0bEouNxFaDhG-52" value="&lt;span style=&quot;font-size: 12px;&quot;&gt;server admin&lt;/span&gt;&lt;span style=&quot;font-size: 12px;&quot;&gt;&lt;br&gt;&lt;/span&gt;" style="rounded=0;whiteSpace=wrap;html=1;fontSize=18;fillColor=#FFE599;" vertex="1" parent="1">
          <mxGeometry x="729" y="350" width="85" height="46.25" as="geometry" />
        </mxCell>
        <mxCell id="D9mH8IFT0bEouNxFaDhG-53" value="&lt;span style=&quot;font-size: 12px;&quot;&gt;server mch&lt;/span&gt;" style="rounded=0;whiteSpace=wrap;html=1;fontSize=18;fillColor=#FFE599;" vertex="1" parent="1">
          <mxGeometry x="729" y="410" width="85" height="46.25" as="geometry" />
        </mxCell>
        <mxCell id="D9mH8IFT0bEouNxFaDhG-54" value="&lt;span style=&quot;font-size: 12px;&quot;&gt;server api&lt;/span&gt;" style="rounded=0;whiteSpace=wrap;html=1;fontSize=18;fillColor=#FFE599;" vertex="1" parent="1">
          <mxGeometry x="729" y="468.5" width="85" height="46.25" as="geometry" />
        </mxCell>
        <mxCell id="D9mH8IFT0bEouNxFaDhG-55" value="&lt;font style=&quot;font-size: 10px;&quot;&gt;safedog&lt;br&gt;(slave)&lt;br&gt;&lt;/font&gt;" style="rounded=0;whiteSpace=wrap;html=1;fontSize=18;fillColor=#99FFFF;" vertex="1" parent="1">
          <mxGeometry x="830" y="540.75" width="60" height="48.5" as="geometry" />
        </mxCell>
        <mxCell id="D9mH8IFT0bEouNxFaDhG-56" value="&lt;font style=&quot;font-size: 10px;&quot;&gt;report dog&lt;/font&gt;" style="rounded=0;whiteSpace=wrap;html=1;fontSize=18;fillColor=#99FFFF;" vertex="1" parent="1">
          <mxGeometry x="230" y="350" width="60" height="48.5" as="geometry" />
        </mxCell>
        <mxCell id="D9mH8IFT0bEouNxFaDhG-57" value="&lt;font style=&quot;font-size: 10px;&quot;&gt;report dog&lt;/font&gt;" style="rounded=0;whiteSpace=wrap;html=1;fontSize=18;fillColor=#99FFFF;" vertex="1" parent="1">
          <mxGeometry x="430" y="350" width="60" height="48.5" as="geometry" />
        </mxCell>
        <mxCell id="D9mH8IFT0bEouNxFaDhG-58" value="&lt;font style=&quot;font-size: 10px;&quot;&gt;report dog&lt;/font&gt;" style="rounded=0;whiteSpace=wrap;html=1;fontSize=18;fillColor=#99FFFF;" vertex="1" parent="1">
          <mxGeometry x="630" y="350" width="60" height="48.5" as="geometry" />
        </mxCell>
        <mxCell id="D9mH8IFT0bEouNxFaDhG-59" value="&lt;font style=&quot;font-size: 10px;&quot;&gt;report dog&lt;/font&gt;" style="rounded=0;whiteSpace=wrap;html=1;fontSize=18;fillColor=#99FFFF;" vertex="1" parent="1">
          <mxGeometry x="830" y="348.88" width="60" height="48.5" as="geometry" />
        </mxCell>
        <mxCell id="D9mH8IFT0bEouNxFaDhG-60" value="&lt;font style=&quot;font-size: 10px;&quot;&gt;redis&lt;/font&gt;" style="rounded=0;whiteSpace=wrap;html=1;fontSize=18;fillColor=#99FFFF;" vertex="1" parent="1">
          <mxGeometry x="230" y="480" width="60" height="48.5" as="geometry" />
        </mxCell>
        <mxCell id="D9mH8IFT0bEouNxFaDhG-61" style="edgeStyle=none;shape=link;rounded=0;orthogonalLoop=1;jettySize=auto;html=1;exitX=1;exitY=0.5;exitDx=0;exitDy=0;fillColor=#D4FCFF;" edge="1" parent="1" source="D9mH8IFT0bEouNxFaDhG-35" target="D9mH8IFT0bEouNxFaDhG-45">
          <mxGeometry relative="1" as="geometry" />
        </mxCell>
        <mxCell id="D9mH8IFT0bEouNxFaDhG-62" style="edgeStyle=none;shape=link;rounded=0;orthogonalLoop=1;jettySize=auto;html=1;exitX=1;exitY=0.5;exitDx=0;exitDy=0;entryX=0;entryY=0.5;entryDx=0;entryDy=0;fillColor=#D4FCFF;" edge="1" parent="1" source="D9mH8IFT0bEouNxFaDhG-45" target="D9mH8IFT0bEouNxFaDhG-55">
          <mxGeometry relative="1" as="geometry" />
        </mxCell>
        <mxCell id="D9mH8IFT0bEouNxFaDhG-63" style="edgeStyle=none;shape=link;rounded=0;orthogonalLoop=1;jettySize=auto;html=1;exitX=1;exitY=0.5;exitDx=0;exitDy=0;exitPerimeter=0;fillColor=#D4FCFF;" edge="1" parent="1" source="D9mH8IFT0bEouNxFaDhG-9" target="D9mH8IFT0bEouNxFaDhG-37">
          <mxGeometry relative="1" as="geometry" />
        </mxCell>
        <mxCell id="D9mH8IFT0bEouNxFaDhG-64" style="edgeStyle=none;shape=link;rounded=0;orthogonalLoop=1;jettySize=auto;html=1;exitX=1;exitY=0.5;exitDx=0;exitDy=0;exitPerimeter=0;fillColor=#D4FCFF;" edge="1" parent="1" source="D9mH8IFT0bEouNxFaDhG-37" target="D9mH8IFT0bEouNxFaDhG-47">
          <mxGeometry relative="1" as="geometry" />
        </mxCell>
        <mxCell id="D9mH8IFT0bEouNxFaDhG-65" value="&lt;span style=&quot;font-size: 14px;&quot;&gt;MySQL&lt;/span&gt;" style="text;html=1;resizable=0;autosize=1;align=center;verticalAlign=middle;points=[];fillColor=none;strokeColor=none;rounded=0;fontSize=18;" vertex="1" parent="1">
          <mxGeometry x="170" y="620" width="60" height="30" as="geometry" />
        </mxCell>
        <mxCell id="D9mH8IFT0bEouNxFaDhG-66" value="&lt;span style=&quot;font-size: 14px;&quot;&gt;MySQL&lt;/span&gt;" style="text;html=1;resizable=0;autosize=1;align=center;verticalAlign=middle;points=[];fillColor=none;strokeColor=none;rounded=0;fontSize=18;" vertex="1" parent="1">
          <mxGeometry x="370" y="620" width="60" height="30" as="geometry" />
        </mxCell>
        <mxCell id="D9mH8IFT0bEouNxFaDhG-67" value="&lt;span style=&quot;font-size: 14px;&quot;&gt;MySQL&lt;/span&gt;" style="text;html=1;resizable=0;autosize=1;align=center;verticalAlign=middle;points=[];fillColor=none;strokeColor=none;rounded=0;fontSize=18;" vertex="1" parent="1">
          <mxGeometry x="570" y="620" width="60" height="30" as="geometry" />
        </mxCell>
        <mxCell id="D9mH8IFT0bEouNxFaDhG-68" value="&lt;span style=&quot;font-size: 14px;&quot;&gt;MySQL&lt;/span&gt;" style="text;html=1;resizable=0;autosize=1;align=center;verticalAlign=middle;points=[];fillColor=none;strokeColor=none;rounded=0;fontSize=18;" vertex="1" parent="1">
          <mxGeometry x="772.5" y="620" width="60" height="30" as="geometry" />
        </mxCell>
        <mxCell id="D9mH8IFT0bEouNxFaDhG-69" value="&lt;span style=&quot;font-size: 14px;&quot;&gt;MySQL&lt;/span&gt;" style="text;html=1;resizable=0;autosize=1;align=center;verticalAlign=middle;points=[];fillColor=none;strokeColor=none;rounded=0;fontSize=18;" vertex="1" parent="1">
          <mxGeometry x="165" y="795" width="70" height="40" as="geometry" />
        </mxCell>
        <mxCell id="D9mH8IFT0bEouNxFaDhG-70" value="&lt;span style=&quot;font-size: 14px;&quot;&gt;MySQL&lt;/span&gt;" style="text;html=1;resizable=0;autosize=1;align=center;verticalAlign=middle;points=[];fillColor=none;strokeColor=none;rounded=0;fontSize=18;" vertex="1" parent="1">
          <mxGeometry x="370" y="705" width="70" height="40" as="geometry" />
        </mxCell>
        <mxCell id="D9mH8IFT0bEouNxFaDhG-71" value="&lt;span style=&quot;font-size: 14px;&quot;&gt;MySQL&lt;/span&gt;" style="text;html=1;resizable=0;autosize=1;align=center;verticalAlign=middle;points=[];fillColor=none;strokeColor=none;rounded=0;fontSize=18;" vertex="1" parent="1">
          <mxGeometry x="565" y="785" width="70" height="40" as="geometry" />
        </mxCell>
        <mxCell id="D9mH8IFT0bEouNxFaDhG-72" value="&lt;span style=&quot;font-size: 14px;&quot;&gt;MySQL&lt;/span&gt;" style="text;html=1;resizable=0;autosize=1;align=center;verticalAlign=middle;points=[];fillColor=none;strokeColor=none;rounded=0;fontSize=18;" vertex="1" parent="1">
          <mxGeometry x="775" y="865" width="70" height="40" as="geometry" />
        </mxCell>
        <mxCell id="D9mH8IFT0bEouNxFaDhG-73" style="edgeStyle=none;rounded=0;orthogonalLoop=1;jettySize=auto;html=1;exitX=0.5;exitY=1;exitDx=0;exitDy=0;fontSize=10;" edge="1" parent="1" source="D9mH8IFT0bEouNxFaDhG-36" target="D9mH8IFT0bEouNxFaDhG-36">
          <mxGeometry relative="1" as="geometry" />
        </mxCell>
        <mxCell id="D9mH8IFT0bEouNxFaDhG-74" value="" style="edgeStyle=orthogonalEdgeStyle;rounded=0;orthogonalLoop=1;jettySize=auto;html=1;" edge="1" parent="1" source="D9mH8IFT0bEouNxFaDhG-76">
          <mxGeometry relative="1" as="geometry">
            <mxPoint x="607.5" y="250" as="targetPoint" />
          </mxGeometry>
        </mxCell>
        <mxCell id="D9mH8IFT0bEouNxFaDhG-75" value="查詢報表..." style="edgeLabel;html=1;align=center;verticalAlign=middle;resizable=0;points=[];" vertex="1" connectable="0" parent="D9mH8IFT0bEouNxFaDhG-74">
          <mxGeometry x="-0.2" relative="1" as="geometry">
            <mxPoint as="offset" />
          </mxGeometry>
        </mxCell>
        <mxCell id="D9mH8IFT0bEouNxFaDhG-76" value="" style="shape=umlActor;verticalLabelPosition=bottom;verticalAlign=top;html=1;outlineConnect=0;" vertex="1" parent="1">
          <mxGeometry x="572.5" y="110" width="70" height="80" as="geometry" />
        </mxCell>
        <mxCell id="D9mH8IFT0bEouNxFaDhG-77" value="&lt;font style=&quot;font-size: 14px;&quot;&gt;商戶後台(ID)&lt;/font&gt;" style="text;html=1;resizable=0;autosize=1;align=center;verticalAlign=middle;points=[];fillColor=none;strokeColor=none;rounded=0;fontSize=18;" vertex="1" parent="1">
          <mxGeometry x="557.5" y="65" width="100" height="40" as="geometry" />
        </mxCell>
        <mxCell id="D9mH8IFT0bEouNxFaDhG-78" value="" style="edgeStyle=orthogonalEdgeStyle;rounded=0;orthogonalLoop=1;jettySize=auto;html=1;" edge="1" parent="1" source="D9mH8IFT0bEouNxFaDhG-80">
          <mxGeometry relative="1" as="geometry">
            <mxPoint x="810" y="250" as="targetPoint" />
          </mxGeometry>
        </mxCell>
        <mxCell id="D9mH8IFT0bEouNxFaDhG-79" value="下單＆查詢pay_type..." style="edgeLabel;html=1;align=center;verticalAlign=middle;resizable=0;points=[];" vertex="1" connectable="0" parent="D9mH8IFT0bEouNxFaDhG-78">
          <mxGeometry x="-0.2" relative="1" as="geometry">
            <mxPoint as="offset" />
          </mxGeometry>
        </mxCell>
        <mxCell id="D9mH8IFT0bEouNxFaDhG-80" value="" style="shape=umlActor;verticalLabelPosition=bottom;verticalAlign=top;html=1;outlineConnect=0;" vertex="1" parent="1">
          <mxGeometry x="775" y="110" width="70" height="80" as="geometry" />
        </mxCell>
        <mxCell id="D9mH8IFT0bEouNxFaDhG-81" value="&lt;font style=&quot;font-size: 14px;&quot;&gt;用戶(BR)&lt;/font&gt;" style="text;html=1;resizable=0;autosize=1;align=center;verticalAlign=middle;points=[];fillColor=none;strokeColor=none;rounded=0;fontSize=18;" vertex="1" parent="1">
          <mxGeometry x="770" y="65" width="80" height="40" as="geometry" />
        </mxCell>
      </root>
    </mxGraphModel>
  </diagram>
  <diagram id="3Y66mjn2vt_lMn1OTEza" name="cashier">
    <mxGraphModel dx="1426" dy="697" grid="1" gridSize="10" guides="1" tooltips="1" connect="1" arrows="1" fold="1" page="1" pageScale="1" pageWidth="827" pageHeight="1169" math="0" shadow="0">
      <root>
        <mxCell id="0" />
        <mxCell id="1" parent="0" />
        <mxCell id="-Fto9yu0AVBZY4muQZHN-9" value="" style="endArrow=none;html=1;rounded=0;entryX=0.5;entryY=1;entryDx=0;entryDy=0;" edge="1" parent="1" target="-Fto9yu0AVBZY4muQZHN-8">
          <mxGeometry width="50" height="50" relative="1" as="geometry">
            <mxPoint x="700" y="1360" as="sourcePoint" />
            <mxPoint x="700" y="630" as="targetPoint" />
          </mxGeometry>
        </mxCell>
        <mxCell id="VUlPUMlc-xB4W6MA4bEd-1" value="" style="endArrow=none;html=1;rounded=0;entryX=0.5;entryY=1;entryDx=0;entryDy=0;startArrow=none;" edge="1" parent="1" source="VUlPUMlc-xB4W6MA4bEd-24" target="VUlPUMlc-xB4W6MA4bEd-6">
          <mxGeometry width="50" height="50" relative="1" as="geometry">
            <mxPoint x="544" y="950" as="sourcePoint" />
            <mxPoint x="570" y="200" as="targetPoint" />
          </mxGeometry>
        </mxCell>
        <mxCell id="VUlPUMlc-xB4W6MA4bEd-2" value="" style="rounded=0;whiteSpace=wrap;html=1;" vertex="1" parent="1">
          <mxGeometry x="529" y="240" width="30" height="200" as="geometry" />
        </mxCell>
        <mxCell id="VUlPUMlc-xB4W6MA4bEd-3" value="" style="endArrow=none;html=1;rounded=0;entryX=0.5;entryY=1;entryDx=0;entryDy=0;startArrow=none;" edge="1" parent="1" source="VUlPUMlc-xB4W6MA4bEd-69">
          <mxGeometry width="50" height="50" relative="1" as="geometry">
            <mxPoint x="390" y="1290" as="sourcePoint" />
            <mxPoint x="389.5" y="150" as="targetPoint" />
          </mxGeometry>
        </mxCell>
        <mxCell id="VUlPUMlc-xB4W6MA4bEd-4" value="" style="endArrow=none;html=1;rounded=0;entryX=0.5;entryY=1;entryDx=0;entryDy=0;startArrow=none;" edge="1" parent="1" source="VUlPUMlc-xB4W6MA4bEd-11">
          <mxGeometry width="50" height="50" relative="1" as="geometry">
            <mxPoint x="244.5" y="950" as="sourcePoint" />
            <mxPoint x="244.5" y="150" as="targetPoint" />
          </mxGeometry>
        </mxCell>
        <mxCell id="VUlPUMlc-xB4W6MA4bEd-5" value="" style="shape=umlActor;verticalLabelPosition=bottom;verticalAlign=top;html=1;outlineConnect=0;" vertex="1" parent="1">
          <mxGeometry x="210" y="70" width="70" height="80" as="geometry" />
        </mxCell>
        <mxCell id="VUlPUMlc-xB4W6MA4bEd-6" value="&lt;font style=&quot;font-size: 10px;&quot;&gt;casier&lt;/font&gt;" style="whiteSpace=wrap;html=1;aspect=fixed;" vertex="1" parent="1">
          <mxGeometry x="504" y="70" width="80" height="80" as="geometry" />
        </mxCell>
        <mxCell id="VUlPUMlc-xB4W6MA4bEd-7" value="db" style="whiteSpace=wrap;html=1;aspect=fixed;" vertex="1" parent="1">
          <mxGeometry x="810" y="70" width="80" height="80" as="geometry" />
        </mxCell>
        <mxCell id="VUlPUMlc-xB4W6MA4bEd-8" value="jp" style="whiteSpace=wrap;html=1;aspect=fixed;" vertex="1" parent="1">
          <mxGeometry x="660" y="70" width="80" height="80" as="geometry" />
        </mxCell>
        <mxCell id="VUlPUMlc-xB4W6MA4bEd-9" value="Mch&lt;br&gt;(Game)" style="whiteSpace=wrap;html=1;aspect=fixed;" vertex="1" parent="1">
          <mxGeometry x="350" y="70" width="80" height="80" as="geometry" />
        </mxCell>
        <mxCell id="VUlPUMlc-xB4W6MA4bEd-10" style="edgeStyle=none;rounded=0;orthogonalLoop=1;jettySize=auto;html=1;exitX=1;exitY=0.25;exitDx=0;exitDy=0;" edge="1" parent="1" source="VUlPUMlc-xB4W6MA4bEd-11">
          <mxGeometry relative="1" as="geometry">
            <mxPoint x="261" y="190" as="sourcePoint" />
            <mxPoint x="370" y="195" as="targetPoint" />
          </mxGeometry>
        </mxCell>
        <mxCell id="VUlPUMlc-xB4W6MA4bEd-11" value="" style="rounded=0;whiteSpace=wrap;html=1;" vertex="1" parent="1">
          <mxGeometry x="230" y="170" width="30" height="100" as="geometry" />
        </mxCell>
        <mxCell id="VUlPUMlc-xB4W6MA4bEd-12" value="" style="endArrow=none;html=1;rounded=0;entryX=0.5;entryY=1;entryDx=0;entryDy=0;startArrow=none;" edge="1" parent="1" source="VUlPUMlc-xB4W6MA4bEd-22" target="VUlPUMlc-xB4W6MA4bEd-11">
          <mxGeometry width="50" height="50" relative="1" as="geometry">
            <mxPoint x="244.5" y="950" as="sourcePoint" />
            <mxPoint x="244.5" y="150" as="targetPoint" />
          </mxGeometry>
        </mxCell>
        <mxCell id="VUlPUMlc-xB4W6MA4bEd-13" value="" style="rounded=0;whiteSpace=wrap;html=1;" vertex="1" parent="1">
          <mxGeometry x="375" y="170" width="30" height="200" as="geometry" />
        </mxCell>
        <mxCell id="VUlPUMlc-xB4W6MA4bEd-14" value="&lt;font style=&quot;font-size: 14px;&quot;&gt;select amount &amp;amp;&lt;br&gt;click online&lt;br&gt;recharge&lt;br&gt;&lt;/font&gt;" style="text;html=1;resizable=0;autosize=1;align=center;verticalAlign=middle;points=[];fillColor=none;strokeColor=none;rounded=0;fontSize=18;" vertex="1" parent="1">
          <mxGeometry x="255" y="190" width="120" height="80" as="geometry" />
        </mxCell>
        <mxCell id="VUlPUMlc-xB4W6MA4bEd-15" value="payment gateway" style="whiteSpace=wrap;html=1;aspect=fixed;" vertex="1" parent="1">
          <mxGeometry x="957" y="70" width="80" height="80" as="geometry" />
        </mxCell>
        <mxCell id="VUlPUMlc-xB4W6MA4bEd-16" value="" style="endArrow=none;html=1;rounded=0;entryX=0.5;entryY=1;entryDx=0;entryDy=0;startArrow=none;" edge="1" parent="1" source="VUlPUMlc-xB4W6MA4bEd-33">
          <mxGeometry width="50" height="50" relative="1" as="geometry">
            <mxPoint x="997" y="950" as="sourcePoint" />
            <mxPoint x="996.5" y="150" as="targetPoint" />
          </mxGeometry>
        </mxCell>
        <mxCell id="VUlPUMlc-xB4W6MA4bEd-17" value="&lt;font style=&quot;font-size: 14px;&quot;&gt;create_order&lt;br&gt;(params: amount,&amp;nbsp;&lt;br&gt;mch_id,user_id...sign)&lt;br&gt;&lt;/font&gt;" style="text;html=1;resizable=0;autosize=1;align=center;verticalAlign=middle;points=[];fillColor=none;strokeColor=none;rounded=0;fontSize=18;" vertex="1" parent="1">
          <mxGeometry x="390" y="250" width="160" height="80" as="geometry" />
        </mxCell>
        <mxCell id="VUlPUMlc-xB4W6MA4bEd-18" value="" style="endArrow=none;html=1;rounded=0;entryX=0.5;entryY=1;entryDx=0;entryDy=0;startArrow=none;" edge="1" parent="1" source="VUlPUMlc-xB4W6MA4bEd-20">
          <mxGeometry width="50" height="50" relative="1" as="geometry">
            <mxPoint x="699.5" y="950" as="sourcePoint" />
            <mxPoint x="699.5" y="150" as="targetPoint" />
          </mxGeometry>
        </mxCell>
        <mxCell id="VUlPUMlc-xB4W6MA4bEd-19" value="" style="endArrow=none;html=1;rounded=0;entryX=0.5;entryY=1;entryDx=0;entryDy=0;startArrow=none;" edge="1" parent="1" source="VUlPUMlc-xB4W6MA4bEd-75">
          <mxGeometry width="50" height="50" relative="1" as="geometry">
            <mxPoint x="850" y="1190" as="sourcePoint" />
            <mxPoint x="849.5" y="150" as="targetPoint" />
          </mxGeometry>
        </mxCell>
        <mxCell id="VUlPUMlc-xB4W6MA4bEd-20" value="" style="rounded=0;whiteSpace=wrap;html=1;" vertex="1" parent="1">
          <mxGeometry x="685" y="280" width="30" height="160" as="geometry" />
        </mxCell>
        <mxCell id="VUlPUMlc-xB4W6MA4bEd-21" value="" style="endArrow=none;html=1;rounded=0;entryX=0.5;entryY=1;entryDx=0;entryDy=0;startArrow=none;" edge="1" parent="1" source="VUlPUMlc-xB4W6MA4bEd-35" target="VUlPUMlc-xB4W6MA4bEd-20">
          <mxGeometry width="50" height="50" relative="1" as="geometry">
            <mxPoint x="699.5" y="950" as="sourcePoint" />
            <mxPoint x="699.5" y="150" as="targetPoint" />
          </mxGeometry>
        </mxCell>
        <mxCell id="VUlPUMlc-xB4W6MA4bEd-22" value="" style="rounded=0;whiteSpace=wrap;html=1;" vertex="1" parent="1">
          <mxGeometry x="230" y="355" width="30" height="175" as="geometry" />
        </mxCell>
        <mxCell id="VUlPUMlc-xB4W6MA4bEd-23" value="" style="endArrow=none;html=1;rounded=0;entryX=0.5;entryY=1;entryDx=0;entryDy=0;startArrow=none;" edge="1" parent="1" source="-Fto9yu0AVBZY4muQZHN-13" target="VUlPUMlc-xB4W6MA4bEd-22">
          <mxGeometry width="50" height="50" relative="1" as="geometry">
            <mxPoint x="244.5" y="950" as="sourcePoint" />
            <mxPoint x="245" y="270" as="targetPoint" />
          </mxGeometry>
        </mxCell>
        <mxCell id="VUlPUMlc-xB4W6MA4bEd-24" value="" style="rounded=0;whiteSpace=wrap;html=1;" vertex="1" parent="1">
          <mxGeometry x="529" y="488" width="30" height="90" as="geometry" />
        </mxCell>
        <mxCell id="VUlPUMlc-xB4W6MA4bEd-25" value="" style="endArrow=none;html=1;rounded=0;entryX=0.5;entryY=1;entryDx=0;entryDy=0;startArrow=none;" edge="1" parent="1" target="VUlPUMlc-xB4W6MA4bEd-24" source="-Fto9yu0AVBZY4muQZHN-5">
          <mxGeometry width="50" height="50" relative="1" as="geometry">
            <mxPoint x="544" y="810" as="sourcePoint" />
            <mxPoint x="544" y="150" as="targetPoint" />
          </mxGeometry>
        </mxCell>
        <mxCell id="VUlPUMlc-xB4W6MA4bEd-26" style="edgeStyle=none;rounded=0;orthogonalLoop=1;jettySize=auto;html=1;" edge="1" parent="1">
          <mxGeometry relative="1" as="geometry">
            <mxPoint x="495" y="405" as="sourcePoint" />
            <mxPoint x="265" y="405" as="targetPoint" />
            <Array as="points">
              <mxPoint x="515" y="405" />
              <mxPoint x="495" y="405" />
            </Array>
          </mxGeometry>
        </mxCell>
        <mxCell id="VUlPUMlc-xB4W6MA4bEd-27" value="&lt;font style=&quot;font-size: 14px;&quot;&gt;encode jwt &amp;amp;&lt;br&gt;response h5&amp;nbsp;page&lt;br&gt;(payment_url,jwt)&lt;br&gt;&lt;/font&gt;" style="text;html=1;resizable=0;autosize=1;align=center;verticalAlign=middle;points=[];fillColor=none;strokeColor=none;rounded=0;fontSize=18;" vertex="1" parent="1">
          <mxGeometry x="330" y="370" width="140" height="80" as="geometry" />
        </mxCell>
        <mxCell id="VUlPUMlc-xB4W6MA4bEd-28" style="edgeStyle=none;rounded=0;orthogonalLoop=1;jettySize=auto;html=1;exitX=1;exitY=0.25;exitDx=0;exitDy=0;" edge="1" parent="1">
          <mxGeometry relative="1" as="geometry">
            <mxPoint x="269" y="508" as="sourcePoint" />
            <mxPoint x="529" y="508" as="targetPoint" />
          </mxGeometry>
        </mxCell>
        <mxCell id="VUlPUMlc-xB4W6MA4bEd-29" value="&lt;font style=&quot;font-size: 14px;&quot;&gt;select pay_type,&lt;br&gt;&lt;span style=&quot;&quot;&gt;place order&lt;/span&gt;&lt;br&gt;&lt;/font&gt;" style="text;html=1;resizable=0;autosize=1;align=center;verticalAlign=middle;points=[];fillColor=none;strokeColor=none;rounded=0;fontSize=18;" vertex="1" parent="1">
          <mxGeometry x="255" y="498" width="120" height="60" as="geometry" />
        </mxCell>
        <mxCell id="VUlPUMlc-xB4W6MA4bEd-30" style="edgeStyle=none;rounded=0;orthogonalLoop=1;jettySize=auto;html=1;" edge="1" parent="1">
          <mxGeometry relative="1" as="geometry">
            <mxPoint x="560" y="564" as="sourcePoint" />
            <mxPoint x="680" y="564" as="targetPoint" />
          </mxGeometry>
        </mxCell>
        <mxCell id="VUlPUMlc-xB4W6MA4bEd-31" style="edgeStyle=none;rounded=0;orthogonalLoop=1;jettySize=auto;html=1;exitX=1;exitY=0.25;exitDx=0;exitDy=0;" edge="1" parent="1">
          <mxGeometry relative="1" as="geometry">
            <mxPoint x="720" y="618" as="sourcePoint" />
            <mxPoint x="830" y="618" as="targetPoint" />
          </mxGeometry>
        </mxCell>
        <mxCell id="VUlPUMlc-xB4W6MA4bEd-32" value="&lt;span style=&quot;color: rgb(0, 0, 0); font-family: Helvetica; font-size: 14px; font-style: normal; font-variant-ligatures: normal; font-variant-caps: normal; font-weight: 400; letter-spacing: normal; orphans: 2; text-align: center; text-indent: 0px; text-transform: none; widows: 2; word-spacing: 0px; -webkit-text-stroke-width: 0px; background-color: rgb(248, 249, 250); text-decoration-thickness: initial; text-decoration-style: initial; text-decoration-color: initial; float: none; display: inline !important;&quot;&gt;update order&lt;/span&gt;" style="text;whiteSpace=wrap;html=1;fontSize=10;" vertex="1" parent="1">
          <mxGeometry x="730" y="625" width="90" height="40" as="geometry" />
        </mxCell>
        <mxCell id="VUlPUMlc-xB4W6MA4bEd-33" value="" style="rounded=0;whiteSpace=wrap;html=1;" vertex="1" parent="1">
          <mxGeometry x="982" y="720" width="30" height="110" as="geometry" />
        </mxCell>
        <mxCell id="VUlPUMlc-xB4W6MA4bEd-34" value="" style="endArrow=none;html=1;rounded=0;entryX=0.5;entryY=1;entryDx=0;entryDy=0;startArrow=none;" edge="1" parent="1" source="VUlPUMlc-xB4W6MA4bEd-73" target="VUlPUMlc-xB4W6MA4bEd-33">
          <mxGeometry width="50" height="50" relative="1" as="geometry">
            <mxPoint x="997" y="1190" as="sourcePoint" />
            <mxPoint x="996.5" y="150" as="targetPoint" />
          </mxGeometry>
        </mxCell>
        <mxCell id="VUlPUMlc-xB4W6MA4bEd-35" value="" style="rounded=0;whiteSpace=wrap;html=1;" vertex="1" parent="1">
          <mxGeometry x="685" y="530" width="30" height="130" as="geometry" />
        </mxCell>
        <mxCell id="VUlPUMlc-xB4W6MA4bEd-36" value="" style="endArrow=none;html=1;rounded=0;entryX=0.5;entryY=1;entryDx=0;entryDy=0;startArrow=none;" edge="1" parent="1" target="VUlPUMlc-xB4W6MA4bEd-35" source="-Fto9yu0AVBZY4muQZHN-8">
          <mxGeometry width="50" height="50" relative="1" as="geometry">
            <mxPoint x="700" y="1450" as="sourcePoint" />
            <mxPoint x="700" y="440" as="targetPoint" />
          </mxGeometry>
        </mxCell>
        <mxCell id="VUlPUMlc-xB4W6MA4bEd-37" style="edgeStyle=none;rounded=0;orthogonalLoop=1;jettySize=auto;html=1;" edge="1" parent="1">
          <mxGeometry relative="1" as="geometry">
            <mxPoint x="720" y="741" as="sourcePoint" />
            <mxPoint x="982" y="741" as="targetPoint" />
          </mxGeometry>
        </mxCell>
        <mxCell id="VUlPUMlc-xB4W6MA4bEd-38" value="" style="rounded=0;whiteSpace=wrap;html=1;" vertex="1" parent="1">
          <mxGeometry x="230" y="770" width="30" height="130" as="geometry" />
        </mxCell>
        <mxCell id="VUlPUMlc-xB4W6MA4bEd-39" value="" style="endArrow=none;html=1;rounded=0;entryX=0.5;entryY=1;entryDx=0;entryDy=0;" edge="1" parent="1" target="VUlPUMlc-xB4W6MA4bEd-38">
          <mxGeometry width="50" height="50" relative="1" as="geometry">
            <mxPoint x="245" y="1360" as="sourcePoint" />
            <mxPoint x="245" y="530" as="targetPoint" />
          </mxGeometry>
        </mxCell>
        <mxCell id="VUlPUMlc-xB4W6MA4bEd-40" style="edgeStyle=none;rounded=0;orthogonalLoop=1;jettySize=auto;html=1;exitX=1;exitY=0.25;exitDx=0;exitDy=0;" edge="1" parent="1">
          <mxGeometry relative="1" as="geometry">
            <mxPoint x="977" y="810" as="sourcePoint" />
            <mxPoint x="270" y="810" as="targetPoint" />
          </mxGeometry>
        </mxCell>
        <mxCell id="VUlPUMlc-xB4W6MA4bEd-41" value="&lt;font style=&quot;font-size: 14px;&quot;&gt;place order&lt;br&gt;,request payment page&lt;br&gt;&lt;br&gt;&lt;/font&gt;" style="text;html=1;resizable=0;autosize=1;align=center;verticalAlign=middle;points=[];fillColor=none;strokeColor=none;rounded=0;fontSize=18;" vertex="1" parent="1">
          <mxGeometry x="710" y="731" width="170" height="80" as="geometry" />
        </mxCell>
        <mxCell id="VUlPUMlc-xB4W6MA4bEd-42" value="&lt;font style=&quot;font-size: 14px;&quot;&gt;response payment page&lt;br&gt;(cashier or 3rd page)&lt;br&gt;&lt;br&gt;&lt;/font&gt;" style="text;html=1;resizable=0;autosize=1;align=center;verticalAlign=middle;points=[];fillColor=none;strokeColor=none;rounded=0;fontSize=18;" vertex="1" parent="1">
          <mxGeometry x="810" y="800" width="170" height="80" as="geometry" />
        </mxCell>
        <mxCell id="VUlPUMlc-xB4W6MA4bEd-43" value="&lt;span style=&quot;color: rgb(0, 0, 0); font-family: Helvetica; font-size: 14px; font-style: normal; font-variant-ligatures: normal; font-variant-caps: normal; font-weight: 400; letter-spacing: normal; orphans: 2; text-align: center; text-indent: 0px; text-transform: none; widows: 2; word-spacing: 0px; -webkit-text-stroke-width: 0px; background-color: rgb(248, 249, 250); text-decoration-thickness: initial; text-decoration-style: initial; text-decoration-color: initial; float: none; display: inline !important;&quot;&gt;place order&lt;br&gt;(params: jwt, pay_type)&lt;br&gt;&lt;/span&gt;" style="text;whiteSpace=wrap;html=1;fontSize=10;" vertex="1" parent="1">
          <mxGeometry x="550" y="565" width="150" height="40" as="geometry" />
        </mxCell>
        <mxCell id="VUlPUMlc-xB4W6MA4bEd-44" style="edgeStyle=none;rounded=0;orthogonalLoop=1;jettySize=auto;html=1;exitX=1;exitY=0.25;exitDx=0;exitDy=0;" edge="1" parent="1">
          <mxGeometry relative="1" as="geometry">
            <mxPoint x="415" y="255" as="sourcePoint" />
            <mxPoint x="525" y="255" as="targetPoint" />
          </mxGeometry>
        </mxCell>
        <mxCell id="VUlPUMlc-xB4W6MA4bEd-45" style="edgeStyle=none;rounded=0;orthogonalLoop=1;jettySize=auto;html=1;exitX=1;exitY=0.25;exitDx=0;exitDy=0;" edge="1" parent="1">
          <mxGeometry relative="1" as="geometry">
            <mxPoint x="565" y="294.5" as="sourcePoint" />
            <mxPoint x="675" y="294.5" as="targetPoint" />
          </mxGeometry>
        </mxCell>
        <mxCell id="VUlPUMlc-xB4W6MA4bEd-46" style="edgeStyle=none;rounded=0;orthogonalLoop=1;jettySize=auto;html=1;" edge="1" parent="1">
          <mxGeometry relative="1" as="geometry">
            <mxPoint x="680" y="380" as="sourcePoint" />
            <mxPoint x="570" y="380" as="targetPoint" />
            <Array as="points" />
          </mxGeometry>
        </mxCell>
        <mxCell id="VUlPUMlc-xB4W6MA4bEd-47" value="&lt;font style=&quot;font-size: 14px;&quot;&gt;response&lt;br&gt;(order_id,pay_types)&lt;br&gt;&lt;/font&gt;" style="text;html=1;resizable=0;autosize=1;align=center;verticalAlign=middle;points=[];fillColor=none;strokeColor=none;rounded=0;fontSize=18;" vertex="1" parent="1">
          <mxGeometry x="550" y="370" width="150" height="60" as="geometry" />
        </mxCell>
        <mxCell id="VUlPUMlc-xB4W6MA4bEd-48" style="edgeStyle=none;rounded=0;orthogonalLoop=1;jettySize=auto;html=1;exitX=1;exitY=0.25;exitDx=0;exitDy=0;" edge="1" parent="1">
          <mxGeometry relative="1" as="geometry">
            <mxPoint x="272.5" y="870" as="sourcePoint" />
            <mxPoint x="977.5" y="870" as="targetPoint" />
            <Array as="points">
              <mxPoint x="372.5" y="870" />
            </Array>
          </mxGeometry>
        </mxCell>
        <mxCell id="VUlPUMlc-xB4W6MA4bEd-49" value="" style="endArrow=none;html=1;rounded=0;entryX=0.5;entryY=1;entryDx=0;entryDy=0;startArrow=none;" edge="1" parent="1" target="VUlPUMlc-xB4W6MA4bEd-73">
          <mxGeometry width="50" height="50" relative="1" as="geometry">
            <mxPoint x="997" y="1100" as="sourcePoint" />
            <mxPoint x="997" y="830" as="targetPoint" />
          </mxGeometry>
        </mxCell>
        <mxCell id="VUlPUMlc-xB4W6MA4bEd-50" value="&lt;font style=&quot;font-size: 14px;&quot;&gt;Fill in the account info.&lt;br&gt;&amp;amp; submit it&lt;br&gt;&lt;/font&gt;" style="text;html=1;resizable=0;autosize=1;align=center;verticalAlign=middle;points=[];fillColor=none;strokeColor=none;rounded=0;fontSize=18;" vertex="1" parent="1">
          <mxGeometry x="270" y="860" width="160" height="60" as="geometry" />
        </mxCell>
        <mxCell id="VUlPUMlc-xB4W6MA4bEd-51" value="" style="rounded=0;whiteSpace=wrap;html=1;" vertex="1" parent="1">
          <mxGeometry x="685" y="930" width="30" height="170" as="geometry" />
        </mxCell>
        <mxCell id="VUlPUMlc-xB4W6MA4bEd-52" value="" style="rounded=0;whiteSpace=wrap;html=1;" vertex="1" parent="1">
          <mxGeometry x="835" y="990" width="30" height="80" as="geometry" />
        </mxCell>
        <mxCell id="VUlPUMlc-xB4W6MA4bEd-53" value="" style="endArrow=none;html=1;rounded=0;entryX=0.5;entryY=1;entryDx=0;entryDy=0;" edge="1" parent="1" target="VUlPUMlc-xB4W6MA4bEd-52">
          <mxGeometry width="50" height="50" relative="1" as="geometry">
            <mxPoint x="850" y="1360" as="sourcePoint" />
            <mxPoint x="849.5" y="150" as="targetPoint" />
          </mxGeometry>
        </mxCell>
        <mxCell id="VUlPUMlc-xB4W6MA4bEd-54" style="edgeStyle=none;rounded=0;orthogonalLoop=1;jettySize=auto;html=1;" edge="1" parent="1">
          <mxGeometry relative="1" as="geometry">
            <mxPoint x="955" y="949.5" as="sourcePoint" />
            <mxPoint x="725" y="949.5" as="targetPoint" />
            <Array as="points">
              <mxPoint x="975" y="949.5" />
              <mxPoint x="955" y="949.5" />
            </Array>
          </mxGeometry>
        </mxCell>
        <mxCell id="VUlPUMlc-xB4W6MA4bEd-55" value="&lt;font style=&quot;font-size: 14px;&quot;&gt;callback payment result&lt;br&gt;&lt;br&gt;&lt;/font&gt;" style="text;html=1;resizable=0;autosize=1;align=center;verticalAlign=middle;points=[];fillColor=none;strokeColor=none;rounded=0;fontSize=18;" vertex="1" parent="1">
          <mxGeometry x="820" y="950" width="170" height="60" as="geometry" />
        </mxCell>
        <mxCell id="VUlPUMlc-xB4W6MA4bEd-56" style="edgeStyle=none;rounded=0;orthogonalLoop=1;jettySize=auto;html=1;exitX=1;exitY=0.25;exitDx=0;exitDy=0;" edge="1" parent="1">
          <mxGeometry relative="1" as="geometry">
            <mxPoint x="720" y="1010" as="sourcePoint" />
            <mxPoint x="830" y="1010" as="targetPoint" />
          </mxGeometry>
        </mxCell>
        <mxCell id="VUlPUMlc-xB4W6MA4bEd-57" value="&lt;span style=&quot;color: rgb(0, 0, 0); font-family: Helvetica; font-size: 14px; font-style: normal; font-variant-ligatures: normal; font-variant-caps: normal; font-weight: 400; letter-spacing: normal; orphans: 2; text-align: center; text-indent: 0px; text-transform: none; widows: 2; word-spacing: 0px; -webkit-text-stroke-width: 0px; background-color: rgb(248, 249, 250); text-decoration-thickness: initial; text-decoration-style: initial; text-decoration-color: initial; float: none; display: inline !important;&quot;&gt;update order status&lt;/span&gt;" style="text;whiteSpace=wrap;html=1;fontSize=10;" vertex="1" parent="1">
          <mxGeometry x="730" y="1010" width="90" height="40" as="geometry" />
        </mxCell>
        <mxCell id="VUlPUMlc-xB4W6MA4bEd-58" value="" style="rounded=0;whiteSpace=wrap;html=1;" vertex="1" parent="1">
          <mxGeometry x="375" y="1020" width="30" height="90" as="geometry" />
        </mxCell>
        <mxCell id="VUlPUMlc-xB4W6MA4bEd-59" style="edgeStyle=none;rounded=0;orthogonalLoop=1;jettySize=auto;html=1;" edge="1" parent="1">
          <mxGeometry relative="1" as="geometry">
            <mxPoint x="649" y="1040" as="sourcePoint" />
            <mxPoint x="419" y="1040" as="targetPoint" />
            <Array as="points">
              <mxPoint x="669" y="1040" />
              <mxPoint x="649" y="1040" />
            </Array>
          </mxGeometry>
        </mxCell>
        <mxCell id="VUlPUMlc-xB4W6MA4bEd-60" value="&lt;font style=&quot;font-size: 14px;&quot;&gt;callback payment result&lt;br&gt;&lt;br&gt;&lt;/font&gt;" style="text;html=1;resizable=0;autosize=1;align=center;verticalAlign=middle;points=[];fillColor=none;strokeColor=none;rounded=0;fontSize=18;" vertex="1" parent="1">
          <mxGeometry x="515" y="1040" width="170" height="60" as="geometry" />
        </mxCell>
        <mxCell id="VUlPUMlc-xB4W6MA4bEd-61" value="" style="rounded=0;whiteSpace=wrap;html=1;" vertex="1" parent="1">
          <mxGeometry x="529" y="1110" width="30" height="170" as="geometry" />
        </mxCell>
        <mxCell id="VUlPUMlc-xB4W6MA4bEd-62" value="" style="endArrow=none;html=1;rounded=0;entryX=0.5;entryY=1;entryDx=0;entryDy=0;" edge="1" parent="1" target="VUlPUMlc-xB4W6MA4bEd-61">
          <mxGeometry width="50" height="50" relative="1" as="geometry">
            <mxPoint x="544" y="1360" as="sourcePoint" />
            <mxPoint x="544" y="560" as="targetPoint" />
          </mxGeometry>
        </mxCell>
        <mxCell id="VUlPUMlc-xB4W6MA4bEd-63" value="" style="endArrow=none;html=1;rounded=0;entryX=0.5;entryY=1;entryDx=0;entryDy=0;startArrow=none;" edge="1" parent="1">
          <mxGeometry width="50" height="50" relative="1" as="geometry">
            <mxPoint x="997" y="1360" as="sourcePoint" />
            <mxPoint x="997" y="1280" as="targetPoint" />
          </mxGeometry>
        </mxCell>
        <mxCell id="VUlPUMlc-xB4W6MA4bEd-64" style="edgeStyle=none;rounded=0;orthogonalLoop=1;jettySize=auto;html=1;" edge="1" parent="1">
          <mxGeometry relative="1" as="geometry">
            <mxPoint x="800" y="1140" as="sourcePoint" />
            <mxPoint x="570" y="1140" as="targetPoint" />
            <Array as="points">
              <mxPoint x="970" y="1140" />
              <mxPoint x="800" y="1140" />
            </Array>
          </mxGeometry>
        </mxCell>
        <mxCell id="VUlPUMlc-xB4W6MA4bEd-65" value="&lt;font style=&quot;font-size: 14px;&quot;&gt;jump to return_url&lt;br&gt;&lt;/font&gt;" style="text;html=1;resizable=0;autosize=1;align=center;verticalAlign=middle;points=[];fillColor=none;strokeColor=none;rounded=0;fontSize=18;" vertex="1" parent="1">
          <mxGeometry x="850" y="1139" width="130" height="40" as="geometry" />
        </mxCell>
        <mxCell id="VUlPUMlc-xB4W6MA4bEd-66" value="" style="rounded=0;whiteSpace=wrap;html=1;" vertex="1" parent="1">
          <mxGeometry x="685" y="1160" width="30" height="90" as="geometry" />
        </mxCell>
        <mxCell id="VUlPUMlc-xB4W6MA4bEd-67" style="edgeStyle=none;rounded=0;orthogonalLoop=1;jettySize=auto;html=1;exitX=1;exitY=0.25;exitDx=0;exitDy=0;" edge="1" parent="1">
          <mxGeometry relative="1" as="geometry">
            <mxPoint x="570" y="1200" as="sourcePoint" />
            <mxPoint x="680" y="1200" as="targetPoint" />
          </mxGeometry>
        </mxCell>
        <mxCell id="VUlPUMlc-xB4W6MA4bEd-68" value="&lt;span style=&quot;color: rgb(0, 0, 0); font-family: Helvetica; font-size: 14px; font-style: normal; font-variant-ligatures: normal; font-variant-caps: normal; font-weight: 400; letter-spacing: normal; orphans: 2; text-align: center; text-indent: 0px; text-transform: none; widows: 2; word-spacing: 0px; -webkit-text-stroke-width: 0px; background-color: rgb(248, 249, 250); text-decoration-thickness: initial; text-decoration-style: initial; text-decoration-color: initial; float: none; display: inline !important;&quot;&gt;polling order status&lt;/span&gt;" style="text;whiteSpace=wrap;html=1;fontSize=10;" vertex="1" parent="1">
          <mxGeometry x="580" y="1200" width="90" height="40" as="geometry" />
        </mxCell>
        <mxCell id="VUlPUMlc-xB4W6MA4bEd-69" value="" style="rounded=0;whiteSpace=wrap;html=1;" vertex="1" parent="1">
          <mxGeometry x="375" y="1190" width="30" height="90" as="geometry" />
        </mxCell>
        <mxCell id="VUlPUMlc-xB4W6MA4bEd-70" value="" style="endArrow=none;html=1;rounded=0;entryX=0.5;entryY=1;entryDx=0;entryDy=0;" edge="1" parent="1" target="VUlPUMlc-xB4W6MA4bEd-69">
          <mxGeometry width="50" height="50" relative="1" as="geometry">
            <mxPoint x="390" y="1360" as="sourcePoint" />
            <mxPoint x="389.5" y="150" as="targetPoint" />
          </mxGeometry>
        </mxCell>
        <mxCell id="VUlPUMlc-xB4W6MA4bEd-71" style="edgeStyle=none;rounded=0;orthogonalLoop=1;jettySize=auto;html=1;" edge="1" parent="1">
          <mxGeometry relative="1" as="geometry">
            <mxPoint x="525" y="1234.5" as="sourcePoint" />
            <mxPoint x="415" y="1234.5" as="targetPoint" />
            <Array as="points" />
          </mxGeometry>
        </mxCell>
        <mxCell id="VUlPUMlc-xB4W6MA4bEd-72" value="&lt;font style=&quot;font-size: 14px;&quot;&gt;return to game&lt;br&gt;&lt;/font&gt;" style="text;html=1;resizable=0;autosize=1;align=center;verticalAlign=middle;points=[];fillColor=none;strokeColor=none;rounded=0;fontSize=18;" vertex="1" parent="1">
          <mxGeometry x="415" y="1225" width="110" height="40" as="geometry" />
        </mxCell>
        <mxCell id="VUlPUMlc-xB4W6MA4bEd-73" value="" style="rounded=0;whiteSpace=wrap;html=1;" vertex="1" parent="1">
          <mxGeometry x="982" y="850" width="30" height="430" as="geometry" />
        </mxCell>
        <mxCell id="VUlPUMlc-xB4W6MA4bEd-74" value="&lt;font style=&quot;font-size: 14px;&quot;&gt;create_order&lt;br&gt;(params: amount,&amp;nbsp;&lt;br&gt;mch_id,user_id...sign)&lt;br&gt;&lt;/font&gt;" style="text;html=1;resizable=0;autosize=1;align=center;verticalAlign=middle;points=[];fillColor=none;strokeColor=none;rounded=0;fontSize=18;" vertex="1" parent="1">
          <mxGeometry x="545" y="280" width="160" height="80" as="geometry" />
        </mxCell>
        <mxCell id="VUlPUMlc-xB4W6MA4bEd-75" value="" style="rounded=0;whiteSpace=wrap;html=1;" vertex="1" parent="1">
          <mxGeometry x="835" y="320" width="30" height="80" as="geometry" />
        </mxCell>
        <mxCell id="VUlPUMlc-xB4W6MA4bEd-76" value="" style="endArrow=none;html=1;rounded=0;entryX=0.5;entryY=1;entryDx=0;entryDy=0;startArrow=none;" edge="1" parent="1" source="VUlPUMlc-xB4W6MA4bEd-52" target="VUlPUMlc-xB4W6MA4bEd-75">
          <mxGeometry width="50" height="50" relative="1" as="geometry">
            <mxPoint x="849.9772727272725" y="990" as="sourcePoint" />
            <mxPoint x="849.5" y="150" as="targetPoint" />
          </mxGeometry>
        </mxCell>
        <mxCell id="VUlPUMlc-xB4W6MA4bEd-77" style="edgeStyle=none;rounded=0;orthogonalLoop=1;jettySize=auto;html=1;exitX=1;exitY=0.25;exitDx=0;exitDy=0;" edge="1" parent="1">
          <mxGeometry relative="1" as="geometry">
            <mxPoint x="725" y="339.5" as="sourcePoint" />
            <mxPoint x="835" y="339.5" as="targetPoint" />
          </mxGeometry>
        </mxCell>
        <mxCell id="VUlPUMlc-xB4W6MA4bEd-78" value="&lt;span style=&quot;color: rgb(0, 0, 0); font-family: Helvetica; font-size: 14px; font-style: normal; font-variant-ligatures: normal; font-variant-caps: normal; font-weight: 400; letter-spacing: normal; orphans: 2; text-align: center; text-indent: 0px; text-transform: none; widows: 2; word-spacing: 0px; -webkit-text-stroke-width: 0px; background-color: rgb(248, 249, 250); text-decoration-thickness: initial; text-decoration-style: initial; text-decoration-color: initial; float: none; display: inline !important;&quot;&gt;record order&lt;br&gt;(&lt;span style=&quot;&quot;&gt;order_id,mch_id,&lt;br&gt;user_id&lt;/span&gt;)&lt;br&gt;&lt;/span&gt;" style="text;whiteSpace=wrap;html=1;fontSize=10;" vertex="1" parent="1">
          <mxGeometry x="720" y="340" width="90" height="40" as="geometry" />
        </mxCell>
        <mxCell id="VUlPUMlc-xB4W6MA4bEd-79" value="" style="rounded=0;whiteSpace=wrap;html=1;" vertex="1" parent="1">
          <mxGeometry x="835" y="605" width="30" height="80" as="geometry" />
        </mxCell>
        <mxCell id="VUlPUMlc-xB4W6MA4bEd-80" value="" style="endArrow=none;html=1;rounded=0;entryX=0.5;entryY=1;entryDx=0;entryDy=0;startArrow=none;" edge="1" parent="1" source="VUlPUMlc-xB4W6MA4bEd-61">
          <mxGeometry width="50" height="50" relative="1" as="geometry">
            <mxPoint x="544" y="1110" as="sourcePoint" />
            <mxPoint x="544" y="800" as="targetPoint" />
          </mxGeometry>
        </mxCell>
        <mxCell id="-Fto9yu0AVBZY4muQZHN-3" value="&lt;font style=&quot;font-size: 14px;&quot;&gt;if only 1 pay_type&lt;br&gt;&lt;/font&gt;" style="text;html=1;resizable=0;autosize=1;align=center;verticalAlign=middle;points=[];fillColor=none;strokeColor=none;rounded=0;fontSize=18;" vertex="1" parent="1">
          <mxGeometry x="399" y="450" width="130" height="40" as="geometry" />
        </mxCell>
        <mxCell id="-Fto9yu0AVBZY4muQZHN-5" value="" style="rounded=0;whiteSpace=wrap;html=1;" vertex="1" parent="1">
          <mxGeometry x="529" y="630" width="30" height="110" as="geometry" />
        </mxCell>
        <mxCell id="-Fto9yu0AVBZY4muQZHN-6" value="" style="endArrow=none;html=1;rounded=0;entryX=0.5;entryY=1;entryDx=0;entryDy=0;startArrow=none;" edge="1" parent="1" target="-Fto9yu0AVBZY4muQZHN-5">
          <mxGeometry width="50" height="50" relative="1" as="geometry">
            <mxPoint x="544" y="810" as="sourcePoint" />
            <mxPoint x="544" y="578" as="targetPoint" />
          </mxGeometry>
        </mxCell>
        <mxCell id="-Fto9yu0AVBZY4muQZHN-8" value="" style="rounded=0;whiteSpace=wrap;html=1;" vertex="1" parent="1">
          <mxGeometry x="685" y="690" width="30" height="65" as="geometry" />
        </mxCell>
        <mxCell id="-Fto9yu0AVBZY4muQZHN-11" style="edgeStyle=none;rounded=0;orthogonalLoop=1;jettySize=auto;html=1;" edge="1" parent="1">
          <mxGeometry relative="1" as="geometry">
            <mxPoint x="680" y="640" as="sourcePoint" />
            <mxPoint x="270" y="640" as="targetPoint" />
            <Array as="points" />
          </mxGeometry>
        </mxCell>
        <mxCell id="-Fto9yu0AVBZY4muQZHN-12" value="&lt;font style=&quot;font-size: 14px;&quot;&gt;return kyc page&lt;br&gt;&lt;/font&gt;" style="text;html=1;resizable=0;autosize=1;align=center;verticalAlign=middle;points=[];fillColor=none;strokeColor=none;rounded=0;fontSize=18;" vertex="1" parent="1">
          <mxGeometry x="559" y="630" width="120" height="40" as="geometry" />
        </mxCell>
        <mxCell id="-Fto9yu0AVBZY4muQZHN-13" value="" style="rounded=0;whiteSpace=wrap;html=1;" vertex="1" parent="1">
          <mxGeometry x="230" y="610" width="30" height="140" as="geometry" />
        </mxCell>
        <mxCell id="-Fto9yu0AVBZY4muQZHN-14" value="" style="endArrow=none;html=1;rounded=0;entryX=0.5;entryY=1;entryDx=0;entryDy=0;startArrow=none;" edge="1" parent="1" source="VUlPUMlc-xB4W6MA4bEd-38" target="-Fto9yu0AVBZY4muQZHN-13">
          <mxGeometry width="50" height="50" relative="1" as="geometry">
            <mxPoint x="245" y="740" as="sourcePoint" />
            <mxPoint x="245" y="530" as="targetPoint" />
          </mxGeometry>
        </mxCell>
        <mxCell id="-Fto9yu0AVBZY4muQZHN-16" style="edgeStyle=none;rounded=0;orthogonalLoop=1;jettySize=auto;html=1;exitX=1;exitY=0.25;exitDx=0;exitDy=0;" edge="1" parent="1">
          <mxGeometry relative="1" as="geometry">
            <mxPoint x="269" y="727" as="sourcePoint" />
            <mxPoint x="680" y="727" as="targetPoint" />
          </mxGeometry>
        </mxCell>
        <mxCell id="-Fto9yu0AVBZY4muQZHN-17" value="&lt;font style=&quot;font-size: 14px;&quot;&gt;type kyc&lt;br&gt;&lt;/font&gt;" style="text;html=1;resizable=0;autosize=1;align=center;verticalAlign=middle;points=[];fillColor=none;strokeColor=none;rounded=0;fontSize=18;" vertex="1" parent="1">
          <mxGeometry x="295" y="717" width="70" height="40" as="geometry" />
        </mxCell>
        <mxCell id="-Fto9yu0AVBZY4muQZHN-18" value="&lt;font style=&quot;font-size: 14px;&quot;&gt;place order&lt;br&gt;&lt;/font&gt;" style="text;html=1;resizable=0;autosize=1;align=center;verticalAlign=middle;points=[];fillColor=none;strokeColor=none;rounded=0;fontSize=18;" vertex="1" parent="1">
          <mxGeometry x="570" y="717" width="90" height="40" as="geometry" />
        </mxCell>
        <mxCell id="-Fto9yu0AVBZY4muQZHN-19" value="" style="curved=1;endArrow=classic;html=1;rounded=0;" edge="1" parent="1">
          <mxGeometry width="50" height="50" relative="1" as="geometry">
            <mxPoint x="680" y="650" as="sourcePoint" />
            <mxPoint x="680" y="710" as="targetPoint" />
            <Array as="points">
              <mxPoint x="680" y="650" />
              <mxPoint x="660" y="700" />
            </Array>
          </mxGeometry>
        </mxCell>
        <mxCell id="-Fto9yu0AVBZY4muQZHN-20" value="&lt;font style=&quot;font-size: 14px;&quot;&gt;if no kyc&lt;br&gt;&lt;/font&gt;" style="text;html=1;resizable=0;autosize=1;align=center;verticalAlign=middle;points=[];fillColor=none;strokeColor=none;rounded=0;fontSize=18;" vertex="1" parent="1">
          <mxGeometry x="609" y="665" width="70" height="40" as="geometry" />
        </mxCell>
        <mxCell id="-Fto9yu0AVBZY4muQZHN-21" value="" style="curved=1;endArrow=classic;html=1;rounded=0;" edge="1" parent="1">
          <mxGeometry width="50" height="50" relative="1" as="geometry">
            <mxPoint x="529" y="428" as="sourcePoint" />
            <mxPoint x="529" y="488" as="targetPoint" />
            <Array as="points">
              <mxPoint x="529" y="428" />
              <mxPoint x="509" y="478" />
            </Array>
          </mxGeometry>
        </mxCell>
      </root>
    </mxGraphModel>
  </diagram>
  <diagram id="jEkscbrPL_FZ8tvNxVhg" name="Page-3">
    <mxGraphModel dx="1426" dy="697" grid="1" gridSize="10" guides="1" tooltips="1" connect="1" arrows="1" fold="1" page="1" pageScale="1" pageWidth="827" pageHeight="1169" math="0" shadow="0">
      <root>
        <mxCell id="0" />
        <mxCell id="1" parent="0" />
        <mxCell id="TjdIDKsAz5HmbRzRebio-8" value="" style="shape=ellipse;container=1;horizontal=1;horizontalStack=0;resizeParent=1;resizeParentMax=0;resizeLast=0;html=1;dashed=1;collapsible=0;" vertex="1" parent="1">
          <mxGeometry x="214" y="210" width="406" height="400" as="geometry" />
        </mxCell>
        <mxCell id="TjdIDKsAz5HmbRzRebio-7" value="" style="shape=ellipse;container=1;horizontal=1;horizontalStack=0;resizeParent=1;resizeParentMax=0;resizeLast=0;html=1;dashed=1;collapsible=0;" vertex="1" parent="TjdIDKsAz5HmbRzRebio-8">
          <mxGeometry x="50" y="50" width="300" height="300" as="geometry" />
        </mxCell>
        <mxCell id="TjdIDKsAz5HmbRzRebio-1" value="" style="shape=ellipse;container=1;horizontal=1;horizontalStack=0;resizeParent=1;resizeParentMax=0;resizeLast=0;html=1;dashed=1;collapsible=0;" vertex="1" parent="TjdIDKsAz5HmbRzRebio-7">
          <mxGeometry x="50" y="50" width="200" height="200" as="geometry" />
        </mxCell>
        <mxCell id="TjdIDKsAz5HmbRzRebio-9" value="Entity&lt;br&gt;(JP)" style="shape=ellipse;container=1;horizontal=1;horizontalStack=0;resizeParent=1;resizeParentMax=0;resizeLast=0;html=1;dashed=1;collapsible=0;" vertex="1" parent="TjdIDKsAz5HmbRzRebio-1">
          <mxGeometry x="50" y="50" width="100" height="100" as="geometry" />
        </mxCell>
        <mxCell id="gNr50Z7VwSgwwoc7kvPK-29" value="&lt;font style=&quot;font-size: 14px;&quot;&gt;Region Handler&lt;br&gt;&lt;/font&gt;" style="text;html=1;resizable=0;autosize=1;align=center;verticalAlign=middle;points=[];fillColor=none;strokeColor=none;rounded=0;fontSize=18;" vertex="1" parent="TjdIDKsAz5HmbRzRebio-1">
          <mxGeometry x="30" y="20" width="120" height="40" as="geometry" />
        </mxCell>
        <mxCell id="c7LYrE61zCT5rrgJD2tR-5" value="" style="endArrow=none;dashed=1;html=1;dashPattern=1 3;strokeWidth=2;rounded=0;curved=1;" edge="1" parent="TjdIDKsAz5HmbRzRebio-7">
          <mxGeometry width="50" height="50" relative="1" as="geometry">
            <mxPoint x="186" y="120" as="sourcePoint" />
            <mxPoint x="302" y="10" as="targetPoint" />
            <Array as="points">
              <mxPoint x="186" y="120" />
            </Array>
          </mxGeometry>
        </mxCell>
        <mxCell id="gNr50Z7VwSgwwoc7kvPK-28" value="&lt;font style=&quot;font-size: 14px;&quot;&gt;Order Service&lt;br&gt;&lt;/font&gt;" style="text;html=1;resizable=0;autosize=1;align=center;verticalAlign=middle;points=[];fillColor=none;strokeColor=none;rounded=0;fontSize=18;" vertex="1" parent="TjdIDKsAz5HmbRzRebio-7">
          <mxGeometry x="50" y="20" width="110" height="40" as="geometry" />
        </mxCell>
        <mxCell id="gNr50Z7VwSgwwoc7kvPK-21" value="" style="rounded=0;orthogonalLoop=1;jettySize=auto;html=1;endArrow=halfCircle;endFill=0;entryX=0.5;entryY=0.5;endSize=6;strokeWidth=1;sketch=0;fontSize=24;curved=1;" edge="1" target="gNr50Z7VwSgwwoc7kvPK-22" parent="TjdIDKsAz5HmbRzRebio-8">
          <mxGeometry relative="1" as="geometry">
            <mxPoint x="56" y="50" as="sourcePoint" />
          </mxGeometry>
        </mxCell>
        <mxCell id="gNr50Z7VwSgwwoc7kvPK-22" value="" style="ellipse;whiteSpace=wrap;html=1;align=center;aspect=fixed;resizable=0;points=[];outlineConnect=0;sketch=0;fontSize=24;" vertex="1" parent="TjdIDKsAz5HmbRzRebio-8">
          <mxGeometry x="16" y="10" width="10" height="10" as="geometry" />
        </mxCell>
        <mxCell id="gNr50Z7VwSgwwoc7kvPK-27" value="&lt;font style=&quot;font-size: 14px;&quot;&gt;API&lt;br&gt;&lt;/font&gt;" style="text;html=1;resizable=0;autosize=1;align=center;verticalAlign=middle;points=[];fillColor=none;strokeColor=none;rounded=0;fontSize=18;" vertex="1" parent="TjdIDKsAz5HmbRzRebio-8">
          <mxGeometry x="66" y="40" width="50" height="40" as="geometry" />
        </mxCell>
        <mxCell id="TjdIDKsAz5HmbRzRebio-11" value="" style="endArrow=none;dashed=1;html=1;dashPattern=1 3;strokeWidth=2;rounded=0;curved=1;" edge="1" parent="1">
          <mxGeometry width="50" height="50" relative="1" as="geometry">
            <mxPoint x="414" y="210" as="sourcePoint" />
            <mxPoint x="414" y="40" as="targetPoint" />
          </mxGeometry>
        </mxCell>
        <mxCell id="TjdIDKsAz5HmbRzRebio-12" value="" style="endArrow=none;dashed=1;html=1;dashPattern=1 3;strokeWidth=2;rounded=0;curved=1;" edge="1" parent="1">
          <mxGeometry width="50" height="50" relative="1" as="geometry">
            <mxPoint x="414" y="780" as="sourcePoint" />
            <mxPoint x="414" y="610" as="targetPoint" />
          </mxGeometry>
        </mxCell>
        <mxCell id="c7LYrE61zCT5rrgJD2tR-1" value="" style="shape=umlActor;verticalLabelPosition=bottom;verticalAlign=top;html=1;outlineConnect=0;" vertex="1" parent="1">
          <mxGeometry x="15" y="147" width="60" height="80" as="geometry" />
        </mxCell>
        <mxCell id="c7LYrE61zCT5rrgJD2tR-2" value="" style="endArrow=none;dashed=1;html=1;dashPattern=1 3;strokeWidth=2;rounded=0;curved=1;" edge="1" parent="1">
          <mxGeometry width="50" height="50" relative="1" as="geometry">
            <mxPoint x="374" y="379" as="sourcePoint" />
            <mxPoint x="270" y="260" as="targetPoint" />
            <Array as="points">
              <mxPoint x="374" y="379" />
            </Array>
          </mxGeometry>
        </mxCell>
        <mxCell id="BN0LbO-r1eCiceLi9Hpo-1" value="&lt;font style=&quot;&quot;&gt;&lt;font style=&quot;font-size: 24px;&quot;&gt;User Interface&lt;/font&gt;&lt;br&gt;&lt;/font&gt;" style="text;html=1;resizable=0;autosize=1;align=center;verticalAlign=middle;points=[];fillColor=none;strokeColor=none;rounded=0;fontSize=18;" vertex="1" parent="1">
          <mxGeometry x="180" y="70" width="170" height="40" as="geometry" />
        </mxCell>
        <mxCell id="BN0LbO-r1eCiceLi9Hpo-2" value="&lt;font style=&quot;&quot;&gt;&lt;font style=&quot;font-size: 24px;&quot;&gt;Infrastructure&lt;/font&gt;&lt;br&gt;&lt;/font&gt;" style="text;html=1;resizable=0;autosize=1;align=center;verticalAlign=middle;points=[];fillColor=none;strokeColor=none;rounded=0;fontSize=18;" vertex="1" parent="1">
          <mxGeometry x="475" y="70" width="160" height="40" as="geometry" />
        </mxCell>
        <mxCell id="BN0LbO-r1eCiceLi9Hpo-4" value="" style="html=1;whiteSpace=wrap;shape=isoCube2;backgroundOutline=1;isoAngle=15;fontSize=24;" vertex="1" parent="1">
          <mxGeometry x="145" y="167" width="50" height="60" as="geometry" />
        </mxCell>
        <mxCell id="gNr50Z7VwSgwwoc7kvPK-1" value="&lt;font style=&quot;font-size: 14px;&quot;&gt;web server&lt;br&gt;&lt;/font&gt;" style="text;html=1;resizable=0;autosize=1;align=center;verticalAlign=middle;points=[];fillColor=none;strokeColor=none;rounded=0;fontSize=18;" vertex="1" parent="1">
          <mxGeometry x="120" y="127" width="90" height="40" as="geometry" />
        </mxCell>
        <mxCell id="gNr50Z7VwSgwwoc7kvPK-6" value="" style="shape=flexArrow;endArrow=classic;html=1;rounded=0;fontSize=24;curved=1;width=12;endSize=4;" edge="1" parent="1">
          <mxGeometry width="50" height="50" relative="1" as="geometry">
            <mxPoint x="75" y="196" as="sourcePoint" />
            <mxPoint x="140" y="196" as="targetPoint" />
          </mxGeometry>
        </mxCell>
        <mxCell id="gNr50Z7VwSgwwoc7kvPK-11" value="" style="rounded=0;orthogonalLoop=1;jettySize=auto;html=1;endArrow=none;endFill=0;sketch=0;sourcePerimeterSpacing=0;targetPerimeterSpacing=0;fontSize=24;curved=1;exitX=0;exitY=0.5;exitDx=0;exitDy=0;" edge="1" target="gNr50Z7VwSgwwoc7kvPK-13" parent="1">
          <mxGeometry relative="1" as="geometry">
            <mxPoint x="660" y="170" as="sourcePoint" />
          </mxGeometry>
        </mxCell>
        <mxCell id="gNr50Z7VwSgwwoc7kvPK-12" value="" style="rounded=0;orthogonalLoop=1;jettySize=auto;html=1;endArrow=halfCircle;endFill=0;entryX=0.5;entryY=0.5;endSize=6;strokeWidth=1;sketch=0;fontSize=24;curved=1;exitX=0.86;exitY=0.148;exitDx=0;exitDy=0;exitPerimeter=0;" edge="1" target="gNr50Z7VwSgwwoc7kvPK-13" parent="1" source="TjdIDKsAz5HmbRzRebio-8">
          <mxGeometry relative="1" as="geometry">
            <mxPoint x="635" y="215" as="sourcePoint" />
          </mxGeometry>
        </mxCell>
        <mxCell id="gNr50Z7VwSgwwoc7kvPK-13" value="" style="ellipse;whiteSpace=wrap;html=1;align=center;aspect=fixed;resizable=0;points=[];outlineConnect=0;sketch=0;fontSize=24;" vertex="1" parent="1">
          <mxGeometry x="610" y="210" width="10" height="10" as="geometry" />
        </mxCell>
        <mxCell id="gNr50Z7VwSgwwoc7kvPK-14" value="" style="html=1;whiteSpace=wrap;shape=isoCube2;backgroundOutline=1;isoAngle=15;fontSize=24;" vertex="1" parent="1">
          <mxGeometry x="660" y="140" width="50" height="60" as="geometry" />
        </mxCell>
        <mxCell id="gNr50Z7VwSgwwoc7kvPK-15" value="&lt;font style=&quot;font-size: 14px;&quot;&gt;JP server&lt;br&gt;&lt;/font&gt;" style="text;html=1;resizable=0;autosize=1;align=center;verticalAlign=middle;points=[];fillColor=none;strokeColor=none;rounded=0;fontSize=18;" vertex="1" parent="1">
          <mxGeometry x="645" y="110" width="80" height="40" as="geometry" />
        </mxCell>
        <mxCell id="gNr50Z7VwSgwwoc7kvPK-16" value="&lt;font style=&quot;font-size: 14px;&quot;&gt;JP Adapter&lt;br&gt;&lt;/font&gt;" style="text;html=1;resizable=0;autosize=1;align=center;verticalAlign=middle;points=[];fillColor=none;strokeColor=none;rounded=0;fontSize=18;" vertex="1" parent="1">
          <mxGeometry x="545" y="160" width="90" height="40" as="geometry" />
        </mxCell>
        <mxCell id="gNr50Z7VwSgwwoc7kvPK-20" value="" style="rounded=0;orthogonalLoop=1;jettySize=auto;html=1;endArrow=none;endFill=0;sketch=0;sourcePerimeterSpacing=0;targetPerimeterSpacing=0;fontSize=24;curved=1;" edge="1" target="gNr50Z7VwSgwwoc7kvPK-22" parent="1">
          <mxGeometry relative="1" as="geometry">
            <mxPoint x="200" y="190" as="sourcePoint" />
          </mxGeometry>
        </mxCell>
        <mxCell id="gNr50Z7VwSgwwoc7kvPK-43" value="" style="rounded=0;orthogonalLoop=1;jettySize=auto;html=1;endArrow=none;endFill=0;sketch=0;sourcePerimeterSpacing=0;targetPerimeterSpacing=0;fontSize=24;curved=1;exitX=0;exitY=0.25;exitDx=0;exitDy=0;" edge="1" target="gNr50Z7VwSgwwoc7kvPK-45" parent="1">
          <mxGeometry relative="1" as="geometry">
            <mxPoint x="700" y="315" as="sourcePoint" />
          </mxGeometry>
        </mxCell>
        <mxCell id="gNr50Z7VwSgwwoc7kvPK-44" value="" style="rounded=0;orthogonalLoop=1;jettySize=auto;html=1;endArrow=halfCircle;endFill=0;entryX=0.5;entryY=0.5;endSize=6;strokeWidth=1;sketch=0;fontSize=24;curved=1;exitX=0.98;exitY=0.36;exitDx=0;exitDy=0;exitPerimeter=0;" edge="1" target="gNr50Z7VwSgwwoc7kvPK-45" parent="1" source="TjdIDKsAz5HmbRzRebio-8">
          <mxGeometry relative="1" as="geometry">
            <mxPoint x="675" y="335" as="sourcePoint" />
          </mxGeometry>
        </mxCell>
        <mxCell id="gNr50Z7VwSgwwoc7kvPK-45" value="" style="ellipse;whiteSpace=wrap;html=1;align=center;aspect=fixed;resizable=0;points=[];outlineConnect=0;sketch=0;fontSize=24;" vertex="1" parent="1">
          <mxGeometry x="650" y="330" width="10" height="10" as="geometry" />
        </mxCell>
        <mxCell id="gNr50Z7VwSgwwoc7kvPK-46" value="" style="html=1;whiteSpace=wrap;shape=isoCube2;backgroundOutline=1;isoAngle=15;fontSize=24;" vertex="1" parent="1">
          <mxGeometry x="700" y="280" width="50" height="60" as="geometry" />
        </mxCell>
        <mxCell id="gNr50Z7VwSgwwoc7kvPK-47" value="&lt;font style=&quot;font-size: 14px;&quot;&gt;Config server&lt;br&gt;&lt;/font&gt;" style="text;html=1;resizable=0;autosize=1;align=center;verticalAlign=middle;points=[];fillColor=none;strokeColor=none;rounded=0;fontSize=18;" vertex="1" parent="1">
          <mxGeometry x="670" y="250" width="110" height="40" as="geometry" />
        </mxCell>
        <mxCell id="gNr50Z7VwSgwwoc7kvPK-48" value="&lt;font style=&quot;font-size: 14px;&quot;&gt;Config Adapter&lt;br&gt;&lt;/font&gt;" style="text;html=1;resizable=0;autosize=1;align=center;verticalAlign=middle;points=[];fillColor=none;strokeColor=none;rounded=0;fontSize=18;" vertex="1" parent="1">
          <mxGeometry x="585" y="290" width="120" height="40" as="geometry" />
        </mxCell>
      </root>
    </mxGraphModel>
  </diagram>
</mxfile>
